<?xml version="1.0" encoding="UTF-8" standalone="no"?>
<svg
   xmlns:dc="http://purl.org/dc/elements/1.1/"
   xmlns:cc="http://creativecommons.org/ns#"
   xmlns:rdf="http://www.w3.org/1999/02/22-rdf-syntax-ns#"
   xmlns:svg="http://www.w3.org/2000/svg"
   xmlns="http://www.w3.org/2000/svg"
   xmlns:sodipodi="http://sodipodi.sourceforge.net/DTD/sodipodi-0.dtd"
   xmlns:inkscape="http://www.inkscape.org/namespaces/inkscape"
   data-name="Layer 1"
   id="Layer_1"
   viewBox="0 0 500 500"
   version="1.1"
   sodipodi:docname="idea.svg"
   inkscape:version="1.0.2 (e86c870879, 2021-01-15)">
  <metadata
     id="metadata941">
    <rdf:RDF>
      <cc:Work
         rdf:about="">
        <dc:format>image/svg+xml</dc:format>
        <dc:type
           rdf:resource="http://purl.org/dc/dcmitype/StillImage" />
        <dc:title></dc:title>
      </cc:Work>
    </rdf:RDF>
  </metadata>
  <sodipodi:namedview
     pagecolor="#ffffff"
     bordercolor="#666666"
     borderopacity="1"
     objecttolerance="10"
     gridtolerance="10"
     guidetolerance="10"
     inkscape:pageopacity="0"
     inkscape:pageshadow="2"
     inkscape:window-width="2560"
     inkscape:window-height="1418"
     id="namedview939"
     showgrid="false"
     inkscape:zoom="2.474"
     inkscape:cx="250"
     inkscape:cy="250"
     inkscape:window-x="0"
     inkscape:window-y="0"
     inkscape:window-maximized="1"
     inkscape:current-layer="Layer_1" />
  <defs
     id="defs908">
    <style
       id="style906">.cls-1{fill:#ffc43d;}.cls-2{fill:#faae17;}.cls-3{fill:none;stroke:#000;stroke-linecap:round;stroke-linejoin:round;stroke-width:20px;}.cls-4{fill:#727373;}.cls-5{fill:#606161;}</style>
  </defs>
  <path
     class="cls-1"
     d="M370.44,222.29a120.44,120.44,0,1,0-229.76,50.59l58.4,127.88H300.92l58.4-127.88A120,120,0,0,0,370.44,222.29Z"
     id="path912" />
  <path
     class="cls-2"
     d="M250,101.85a120.44,120.44,0,0,0-16.1,1.2,120.37,120.37,0,0,1,93.22,169.83l-58.4,127.88h32.2l58.4-127.88A120.48,120.48,0,0,0,250,101.85Z"
     id="path914" />
  <line
     class="cls-3"
     x1="250"
     x2="250"
     y1="10.88"
     y2="50.42"
     id="line916" />
  <line
     class="cls-3"
     x1="398.45"
     x2="370.72"
     y1="73.67"
     y2="101.85"
     id="line918" />
  <line
     class="cls-3"
     x1="456.14"
     x2="416.61"
     y1="223.18"
     y2="223.18"
     id="line920" />
  <line
     class="cls-3"
     x1="101.55"
     x2="129.28"
     y1="73.67"
     y2="101.85"
     id="line922" />
  <line
     class="cls-3"
     x1="43.86"
     x2="83.39"
     y1="223.18"
     y2="223.18"
     id="line924" />
  <path
     class="cls-3"
     d="M370.44,222.29a120.44,120.44,0,1,0-229.76,50.59l58.4,127.88H300.92l58.4-127.88A120,120,0,0,0,370.44,222.29Z"
     id="path926" />
  <path
     class="cls-4"
     d="M199,400.76H301a0,0,0,0,1,0,0v37.39a51,51,0,0,1-51,51h0a51,51,0,0,1-51-51V400.76A0,0,0,0,1,199,400.76Z"
     id="path928" />
  <path
     class="cls-5"
     d="M268.77,400.76v37.39a51,51,0,0,1-34.87,48.33,50.78,50.78,0,0,0,16.1,2.64h0a51,51,0,0,0,51-51V400.76Z"
     id="path930" />
  <path
     class="cls-3"
     d="M199,400.76H301a0,0,0,0,1,0,0v37.39a51,51,0,0,1-51,51h0a51,51,0,0,1-51-51V400.76A0,0,0,0,1,199,400.76Z"
     id="path932" />
  <line
     class="cls-3"
     x1="186.39"
     x2="313.61"
     y1="436.13"
     y2="436.13"
     id="line934" />
  <line
     class="cls-3"
     x1="186.39"
     x2="313.61"
     y1="400.76"
     y2="400.76"
     id="line936" />
</svg>
